<svg width="24" height="20" viewBox="0 0 36 36" fill="none" xmlns="http://www.w3.org/2000/svg">
<g clip-path="url(#clip0_4398_125)">
<path d="M30.3812 13.625C29.6415 11.5349 28.3845 9.66618 26.7274 8.19329C25.0702 6.72039 23.0669 5.69129 20.9045 5.20201C18.7421 4.71273 16.4909 4.77922 14.3611 5.39526C12.2313 6.01131 10.2923 7.15684 8.72492 8.72497L1.95825 15.0833M34.0416 20.9166L27.2749 27.275C25.7076 28.8431 23.7685 29.9886 21.6387 30.6047C19.5089 31.2207 17.2578 31.2872 15.0953 30.7979C12.9329 30.3086 10.9296 29.2795 9.27247 27.8066C7.61532 26.3338 6.35829 24.4651 5.61867 22.375" stroke="#154962" stroke-width="2" stroke-linecap="round" stroke-linejoin="round"/>
<path d="M2.37842 6.58545V15.1462H10.8993" stroke="#154962" stroke-width="2" stroke-linecap="round" stroke-linejoin="round"/>
</g>
<defs>
<clipPath id="clip0_4398_125">
<rect x="0.958252" y="0.878418" width="34.0833" height="34.2431" fill="white"/>
</clipPath>
</defs>
</svg>