<svg width="60" height="102" viewBox="0 0 60 102" fill="none" xmlns="http://www.w3.org/2000/svg">
<path d="M1.45176 60.1917C0.896995 60.8706 0.410921 78.6203 1.07135 80.7971C1.73178 82.9739 5.90307 86.9999 6.06157 87.5731C6.17487 88.1186 6.17487 88.6814 6.06157 89.2269C5.99817 89.491 4.68523 90.5768 4.2467 91.1051C4.02216 91.3693 3.64175 93.3981 3.98253 93.5566C4.32331 93.7152 6.90956 93.525 7.68095 92.7932C8.45233 92.0614 10.4019 89.034 10.5868 88.5664C10.7718 88.0988 10.2487 84.7782 10.114 84.1098C9.97925 83.4415 14.4068 73.9603 14.4226 70.608C14.4385 67.2556 2.61148 58.7757 1.45176 60.1917Z" fill="#EDA61A"/>
<path d="M6.67448 91.105C6.67728 91.1015 6.68136 91.0992 6.68582 91.0987C6.69028 91.0982 6.69475 91.0995 6.69825 91.1023C6.70175 91.1051 6.704 91.1092 6.7045 91.1137C6.70499 91.1181 6.7037 91.1226 6.70089 91.1261C6.43672 91.5409 6.21217 91.9715 6.00084 92.41C5.77755 92.7909 5.68479 93.2343 5.73666 93.6727C5.73666 93.6783 5.73444 93.6837 5.73048 93.6877C5.72651 93.6917 5.72113 93.6939 5.71553 93.6939C5.70992 93.6939 5.70455 93.6917 5.70059 93.6877C5.69662 93.6837 5.6944 93.6783 5.6944 93.6727C5.56214 93.2412 5.56953 92.7789 5.71553 92.3519C5.93997 91.871 6.26734 91.4453 6.67448 91.105Z" fill="#263238"/>
<path d="M5.24529 91.076C5.24806 91.0741 5.25134 91.0731 5.25468 91.0733C5.25802 91.0734 5.26124 91.0745 5.26387 91.0766C5.26651 91.0786 5.26843 91.0815 5.26936 91.0847C5.27029 91.0879 5.27019 91.0913 5.26906 91.0944C5.04073 91.5048 4.83867 91.9292 4.66411 92.3651C4.50824 92.7297 4.21237 93.2924 4.49768 93.6596C4.54523 93.723 4.49768 93.7414 4.44484 93.6886C4.08028 93.3716 4.20709 92.801 4.34446 92.4021C4.53995 91.8973 4.84804 91.4437 5.24529 91.076Z" fill="#263238"/>
<path d="M29.5122 59.3571C30.067 60.036 30.5531 77.7858 29.8926 79.9757C29.2322 82.1657 25.0609 86.1759 24.9024 86.7465C24.7891 87.2928 24.7891 87.8565 24.9024 88.4029C24.9658 88.667 26.4082 89.9086 26.7173 90.2811C27.1584 90.8095 27.597 92.3337 27.2456 92.4922C26.8943 92.6508 23.7744 92.4922 23.283 91.9639C22.5513 91.2004 20.5594 88.2074 20.3771 87.7371C20.1949 87.2669 20.7179 83.9463 20.85 83.2779C20.9821 82.6096 16.5519 73.1258 16.5466 69.7734C16.5413 66.4211 28.3525 57.9517 29.5122 59.3571Z" fill="#EDA61A"/>
<g opacity="0.1">
<path d="M29.5122 59.3571C30.067 60.036 30.5531 77.7858 29.8926 79.9757C29.2322 82.1657 25.0609 86.1759 24.9024 86.7465C24.7891 87.2928 24.7891 87.8565 24.9024 88.4029C24.9658 88.667 26.4082 89.9086 26.7173 90.2811C27.1584 90.8095 27.597 92.3337 27.2456 92.4922C26.8943 92.6508 23.7744 92.4922 23.283 91.9639C22.5513 91.2004 20.5594 88.2074 20.3771 87.7371C20.1949 87.2669 20.7179 83.9463 20.85 83.2779C20.9821 82.6096 16.5519 73.1258 16.5466 69.7734C16.5413 66.4211 28.3525 57.9517 29.5122 59.3571Z" fill="black"/>
</g>
<path d="M24.2129 90.1328C24.1997 90.1328 24.1786 90.1328 24.1891 90.1566C24.4692 90.5555 24.736 90.965 24.9817 91.3903C25.234 91.7528 25.361 92.1879 25.3436 92.6292C25.3436 92.6348 25.3458 92.6402 25.3498 92.6442C25.3537 92.6481 25.3591 92.6504 25.3647 92.6504C25.3703 92.6504 25.3757 92.6481 25.3797 92.6442C25.3836 92.6402 25.3858 92.6348 25.3858 92.6292C25.4891 92.1881 25.4494 91.7254 25.2723 91.3084C25.0107 90.8428 24.6488 90.4413 24.2129 90.1328Z" fill="#263238"/>
<path d="M25.6394 90.0034C25.6235 90.0034 25.6024 90.0034 25.613 90.0272C25.8704 90.4197 26.1025 90.8282 26.3077 91.2503C26.4874 91.6043 26.8229 92.1432 26.5719 92.5316C26.527 92.5976 26.5719 92.6134 26.6247 92.558C26.9682 92.2145 26.8017 91.6545 26.6379 91.2662C26.4037 90.7759 26.0625 90.3443 25.6394 90.0034Z" fill="#263238"/>
<path d="M27.8188 88.437C27.8188 88.437 36.4335 94.0718 37.5061 94.3915C38.5786 94.7111 53.2402 101.22 54.3708 101.331C54.8279 101.376 59.472 101.72 59.7573 101.577C60.0426 101.434 58.5157 99.3341 57.4405 98.8322C56.3653 98.3303 53.264 98.0397 52.8571 97.7755C52.4503 97.5114 43.5345 88.4872 43.0273 87.7C42.5201 86.9127 41.1781 79.6216 41.1781 79.6216L27.8188 88.437Z" fill="#EDA61A"/>
<path d="M56.2808 99.4897C56.2649 99.4897 56.2464 99.4897 56.2596 99.5135C56.5793 99.8807 56.8884 100.261 57.1737 100.657C57.463 100.992 57.6347 101.412 57.6624 101.854C57.664 101.859 57.667 101.863 57.6711 101.866C57.6751 101.869 57.6799 101.87 57.6848 101.87C57.6898 101.87 57.6946 101.869 57.6986 101.866C57.7026 101.863 57.7057 101.859 57.7073 101.854C57.7605 101.401 57.6679 100.943 57.4431 100.546C57.179 100.081 56.7193 99.7883 56.2808 99.4897Z" fill="#263238"/>
<path d="M57.6834 99.2123C57.6702 99.1991 57.6517 99.2123 57.6623 99.236C57.9598 99.5992 58.2333 99.9813 58.4812 100.38C58.6979 100.713 59.0888 101.215 58.8722 101.627C58.8352 101.698 58.8722 101.709 58.9277 101.648C59.2315 101.27 59.007 100.729 58.8035 100.361C58.522 99.8985 58.139 99.5056 57.6834 99.2123Z" fill="#263238"/>
<path opacity="0.1" d="M42.9532 87.5389L31.504 90.8015C29.5253 89.5414 27.8293 88.4239 27.8293 88.4239L41.1938 79.6138C41.1938 79.6138 42.3932 86.2313 42.9532 87.5389Z" fill="black"/>
<path d="M33.192 73.329C30.9492 69.6306 29.9374 54.2187 26.2469 50.9086C24.1335 49.004 11.1389 39.1292 6.67963 40.3655C5.22404 40.7697 0.775369 56.5751 1.53883 61.5416C2.39475 67.0892 6.08788 76.0711 7.79179 78.1845C9.49571 80.2978 19.7007 79.2042 21.2646 80.0654C22.8285 80.9266 33.192 73.329 33.192 73.329Z" fill="#EDA61A"/>
<path d="M7.19478 77.8567C7.16042 77.6884 7.11542 77.5226 7.06005 77.36C6.96759 77.051 6.86457 76.7472 6.7589 76.4434C6.5502 75.8437 6.32565 75.2519 6.09582 74.6628C5.63352 73.482 5.11574 72.3223 4.58475 71.1678C4.2836 70.5074 3.97451 69.847 3.66807 69.1918C3.66807 69.1654 3.6126 69.1918 3.62316 69.2103C4.55305 71.5879 5.38256 73.9786 6.3415 76.343C6.47623 76.6732 6.60567 77.0008 6.75361 77.3283C6.81701 77.4763 6.8857 77.6216 6.95438 77.7669C7.0442 77.9597 7.17364 78.1208 7.24761 78.3216C7.24761 78.3454 7.29781 78.3348 7.28724 78.3084C7.2424 78.161 7.21145 78.0098 7.19478 77.8567Z" fill="#263238"/>
<path d="M2.32083 66.1885C2.21256 65.459 2.19658 64.7188 2.27328 63.9853C2.33404 63.2377 2.41593 62.4901 2.5216 61.7478C2.64312 60.9112 2.78313 60.0764 2.94164 59.2434C2.94164 59.2302 2.92315 59.2249 2.92051 59.2434C2.54802 60.736 2.268 62.2497 2.03553 63.7713C1.89964 64.5036 1.85703 65.2501 1.90872 65.993C1.98596 66.7001 2.17035 67.3914 2.45556 68.043C2.77861 68.7745 3.15566 69.4809 3.58358 70.1564C3.59679 70.1749 3.63113 70.1564 3.6232 70.1379C3.1292 68.8461 2.55331 67.5622 2.32083 66.1885Z" fill="#263238"/>
<path d="M6.63495 45.1153C5.36164 41.8052 0.603887 35.1666 2.34478 27.2863C3.63395 21.4745 10.5553 13.1504 10.3096 9.05839C10.1194 5.85926 2.47687 7.83792 2.34478 4.12365C2.19156 -0.203497 11.1655 -1.95232 14.4043 3.42359C18.6495 10.4796 8.22791 23.3449 6.92026 30.0575C5.53599 37.1716 8.95967 42.3283 8.81701 42.6638C8.67436 42.9993 6.63495 45.1153 6.63495 45.1153Z" fill="#EDA61A"/>
<path d="M7.97951 73.8019C7.97951 73.8019 6.46316 81.9913 7.90818 84.7387C9.00978 86.852 11.7915 93.8711 12.4599 97.5907C12.5682 98.2009 12.8324 99.3765 13.0094 99.6644C13.1864 99.9524 17.0803 100.998 17.5214 100.792C17.7856 100.671 17.7592 99.2074 17.569 98.8798C17.3048 98.3911 16.1662 97.5299 16.1372 97.3661C16.087 97.1019 15.7964 88.9601 15.9047 88.2574C16.013 87.5547 19.3865 81.9913 19.8911 79.3495C20.3956 76.7078 8.49201 72.9698 7.97951 73.8019Z" fill="#EDA61A"/>
<path d="M15.0594 98.2198C15.0569 98.2163 15.0532 98.2139 15.049 98.2131C15.0447 98.2124 15.0404 98.2134 15.0369 98.2158C15.0334 98.2183 15.031 98.222 15.0303 98.2262C15.0295 98.2304 15.0305 98.2348 15.0329 98.2383C15.2813 98.6583 15.5137 99.0889 15.7224 99.5301C15.9461 99.9118 16.0389 100.356 15.9866 100.795C15.9866 100.801 15.9888 100.806 15.9928 100.81C15.9968 100.814 16.0021 100.817 16.0077 100.817C16.0133 100.817 16.0187 100.814 16.0227 100.81C16.0266 100.806 16.0289 100.801 16.0289 100.795C16.1673 100.366 16.1673 99.904 16.0289 99.4746C15.8037 98.989 15.4724 98.5602 15.0594 98.2198Z" fill="#263238"/>
<path d="M16.4912 98.2036C16.478 98.1904 16.4542 98.2036 16.4648 98.2221C16.6901 98.6342 16.8887 99.0604 17.0592 99.498C17.2124 99.8652 17.503 100.428 17.2124 100.795C17.1648 100.856 17.2124 100.877 17.2652 100.824C17.6351 100.51 17.5109 99.9366 17.3788 99.5403C17.1878 99.0334 16.8843 98.5764 16.4912 98.2036Z" fill="#263238"/>
<path d="M9.74933 88.704C9.63309 88.3896 9.53271 88.0699 9.41911 87.7529C9.19192 87.1189 8.9436 86.4928 8.69528 85.8668C8.44696 85.2407 8.2092 84.6648 7.96881 84.0624C7.71297 83.4717 7.53535 82.85 7.44046 82.2132C7.38322 81.5639 7.37881 80.911 7.42725 80.261C7.45895 79.5953 7.50122 78.9269 7.55405 78.2612C7.65708 76.9404 7.81823 75.6195 7.96881 74.2986C8.15109 72.8087 8.30959 71.3161 8.56583 69.8341C8.56736 69.825 8.56542 69.8156 8.56038 69.8079C8.55535 69.8001 8.54759 69.7945 8.53864 69.7922C8.52969 69.7899 8.52019 69.791 8.51202 69.7953C8.50385 69.7997 8.4976 69.8069 8.49451 69.8156C8.17222 71.1365 7.88427 72.4573 7.62802 73.7782C7.39899 75.0897 7.23938 76.4124 7.14987 77.7408C7.09527 78.4171 7.05037 79.0942 7.01514 79.7723C6.96583 80.4447 6.95348 81.1194 6.97816 81.7932C7.05213 83.1141 7.5699 84.3266 8.09296 85.5233C8.39676 86.2155 8.69 86.9155 9.01493 87.5971C9.17871 87.9379 9.35571 88.2707 9.51421 88.6141C9.67272 88.9576 9.86821 89.3089 10.0267 89.6708C10.0267 89.692 10.0743 89.6708 10.0663 89.6523C9.95538 89.3433 9.86556 89.021 9.74933 88.704Z" fill="#263238"/>
<path d="M7.74164 67.7894C7.74164 67.7746 7.73579 67.7605 7.72539 67.7501C7.71499 67.7397 7.70087 67.7339 7.68616 67.7339C7.67145 67.7339 7.65733 67.7397 7.64693 67.7501C7.63653 67.7605 7.63068 67.7746 7.63068 67.7894C7.58049 68.5238 7.52237 69.2634 7.51709 70.0005C7.51709 70.3624 7.51709 70.7243 7.54615 71.0862C7.54615 71.2606 7.57521 71.4376 7.58577 71.6146C7.58891 71.7922 7.60926 71.9692 7.64654 72.1429C7.64654 72.1485 7.64876 72.1539 7.65272 72.1579C7.65669 72.1618 7.66206 72.1641 7.66767 72.1641C7.67327 72.1641 7.67865 72.1618 7.68261 72.1579C7.68658 72.1539 7.6888 72.1485 7.6888 72.1429C7.75673 71.8036 7.79299 71.4587 7.79711 71.1127C7.82089 70.7402 7.83674 70.365 7.83674 69.9926C7.83674 69.2582 7.78655 68.5185 7.74164 67.7894Z" fill="#263238"/>
<path d="M43.2175 76.9716C44.01 76.998 43.8039 63.8819 40.7211 60.4318C40.2772 59.9378 33.2978 68.9117 33.2001 69.2155C33.1023 69.5193 41.5664 76.9109 43.2175 76.9716Z" fill="#EDA61A"/>
<path opacity="0.1" d="M42.9665 76.9138C43.648 76.9376 43.4658 65.7446 40.8346 62.7991C40.4568 62.3764 34.4945 70.0348 34.4178 70.2963C34.3412 70.5578 41.5637 76.8636 42.9665 76.9138Z" fill="black"/>
<path d="M40.5492 76.1003C40.5806 75.7455 40.6318 75.3927 40.7024 75.0436C40.7701 74.6866 40.8583 74.3338 40.9666 73.9869C41.1642 73.3013 41.4605 72.6481 41.8463 72.0479C42.2226 71.4437 42.7244 70.9275 43.3177 70.5342C43.4662 70.4381 43.6196 70.3499 43.7774 70.27C43.9361 70.1895 44.0993 70.1181 44.2661 70.056C44.6016 69.925 44.9482 69.8242 45.3017 69.7549C44.5725 69.8139 43.867 70.0419 43.2411 70.4206C42.9246 70.6068 42.6349 70.8352 42.3799 71.0995C42.1204 71.3601 41.8877 71.6459 41.6851 71.9528C41.2975 72.5733 41.007 73.2495 40.8239 73.9579C40.6376 74.6566 40.5452 75.3771 40.5492 76.1003Z" fill="#263238"/>
<path d="M40.0473 75.8757C40.0117 75.3585 40.0117 74.8395 40.0473 74.3223C40.0726 73.8059 40.13 73.2915 40.219 72.7822C40.3818 71.764 40.6859 70.7734 41.1225 69.8393C41.3405 69.3733 41.5967 68.9262 41.8886 68.5026C42.1848 68.0815 42.5143 67.6848 42.874 67.3165C43.2344 66.9461 43.6269 66.6084 44.0469 66.3073C44.4675 66.0014 44.9088 65.7251 45.3678 65.4805C44.411 65.9027 43.535 66.4882 42.7789 67.2108C42.401 67.5753 42.0579 67.9742 41.7539 68.4022C41.4529 68.8314 41.1879 69.2847 40.9614 69.7574C40.5208 70.7091 40.2217 71.7202 40.0738 72.7584C39.9171 73.791 39.9082 74.8406 40.0473 75.8757Z" fill="#263238"/>
<path d="M16.1107 79.2833C15.3182 79.3837 14.3064 66.3072 17.0538 62.5824C17.4474 62.054 25.2431 70.3332 25.362 70.6264C25.4809 70.9196 17.7433 79.0852 16.1107 79.2833Z" fill="#EDA61A"/>
<path opacity="0.1" d="M16.3485 79.2043C15.6722 79.2915 14.8083 68.1328 17.141 64.9548C17.4791 64.4978 24.1257 71.5592 24.2314 71.8233C24.337 72.0875 17.7406 79.0247 16.3485 79.2043Z" fill="black"/>
<path d="M25.3965 70.5444C24.8681 69.7519 22.2555 66.9385 21.5633 66.2622C20.8712 65.5859 20.0972 64.9043 19.3469 64.2439C18.9542 63.8917 18.5588 63.5456 18.1608 63.2057L17.5611 62.7064C17.4052 62.545 17.2273 62.4063 17.0328 62.2943C16.5573 62.083 15.5904 64.5662 15.1017 67.3902C14.7998 69.2825 14.7059 71.2021 14.8217 73.1148C14.8664 74.1887 14.9829 75.2583 15.1704 76.3166C15.3469 77.3636 15.5985 78.3965 15.9233 79.4074C15.9248 79.4115 15.9275 79.4149 15.931 79.4174C15.9345 79.4199 15.9388 79.4212 15.9431 79.4212C15.9474 79.4212 15.9516 79.4199 15.9551 79.4174C15.9587 79.4149 15.9614 79.4115 15.9629 79.4074C15.778 78.496 15.5983 77.5846 15.49 76.6653C15.3817 75.746 15.3051 74.8452 15.2628 73.9338C15.1675 72.1027 15.2312 70.2669 15.453 68.4469C15.9127 64.9308 16.9879 62.7064 17.0222 62.7355L17.5981 63.2638C17.9644 63.6072 18.3352 63.948 18.7103 64.2862C19.4315 64.936 20.15 65.5912 20.8844 66.2252C21.6637 66.8936 24.6462 69.8047 25.3225 70.6105C25.3542 70.6448 25.4308 70.5973 25.3965 70.5444Z" fill="#263238"/>
<path d="M18.6785 78.1716C18.6107 77.8146 18.5225 77.4618 18.4143 77.1149C18.3161 76.7701 18.1979 76.4314 18.0603 76.1005C17.7988 75.4365 17.4429 74.8137 17.0036 74.2512C16.5709 73.6868 16.0235 73.2204 15.3974 72.8828C15.241 72.7967 15.0796 72.7199 14.914 72.653C14.7476 72.5949 14.5811 72.5262 14.4068 72.4839C14.0611 72.3864 13.7075 72.3192 13.3501 72.2832C14.0813 72.2731 14.8048 72.4332 15.4635 72.7507C15.7956 72.9096 16.1055 73.1112 16.3854 73.3504C16.6687 73.5869 16.9264 73.8526 17.1542 74.1429C17.6036 74.7227 17.9601 75.3688 18.2109 76.0582C18.4613 76.7383 18.6186 77.4492 18.6785 78.1716Z" fill="#263238"/>
<path d="M19.1593 77.8991C19.1501 77.3806 19.1051 76.8633 19.0246 76.351C18.9519 75.8394 18.8469 75.333 18.7102 74.8346C18.45 73.8354 18.0507 72.8777 17.5241 71.9895C17.2629 71.5461 16.966 71.1247 16.6365 70.7294C16.3017 70.3387 15.9369 69.9748 15.5454 69.641C15.1516 69.306 14.7291 69.0063 14.2827 68.7455C13.8375 68.4813 13.3751 68.2474 12.8984 68.0454C13.8907 68.3768 14.8176 68.8782 15.6379 69.5274C16.0471 69.8551 16.4255 70.2194 16.7686 70.6158C17.1099 71.0149 17.4174 71.4417 17.6879 71.8918C18.2178 72.7975 18.6104 73.7768 18.8529 74.7977C19.1021 75.8116 19.2052 76.8559 19.1593 77.8991Z" fill="#263238"/>
<path d="M38.1083 88.6585C38.3514 88.5819 43.3654 85.1028 45.0614 80.0095C45.3493 79.143 38.7767 70.0793 35.5881 68.4203C33.9793 67.5828 24.4374 68.9486 23.8641 69.1309C21.624 69.8468 15.0513 79.2117 15.3578 82.0753C15.4687 83.132 18.6097 87.232 24.0887 89.5145C25.4254 90.0824 32.3071 90.4945 38.1083 88.6585Z" fill="#EDA61A"/>
<path d="M17.4951 85.1213C17.0062 84.6244 16.5689 84.0792 16.1901 83.494C15.7871 82.8071 15.6166 82.0084 15.704 81.2168C15.704 81.1904 15.667 81.1798 15.6644 81.2168C15.5788 81.6343 15.5311 82.0587 15.5217 82.4848C15.538 82.8859 15.6456 83.278 15.8361 83.6313C16.2086 84.305 16.832 84.7594 17.4581 85.182C17.4898 85.1926 17.5162 85.1451 17.4951 85.1213Z" fill="#263238"/>
<path d="M37.5669 69.7864C37.1521 69.3955 36.7506 68.9939 36.3015 68.6373C36.1039 68.4687 35.8833 68.3291 35.6464 68.2226C35.4033 68.1248 32.6559 67.7602 24.2315 68.8249C23.6537 68.9355 23.1293 69.2358 22.7415 69.6781C22.2792 70.1352 21.8645 70.6397 21.4207 71.1232C21.3995 71.1443 21.4207 71.1707 21.4497 71.1522C21.8645 70.7797 22.2792 70.4046 22.6993 70.0374C23.1193 69.6702 23.5684 69.2898 24.0915 69.2185C28.4318 68.6135 34.4074 68.1829 35.9792 68.7271C36.2499 68.8654 36.4984 69.0435 36.7163 69.2555C36.9804 69.4536 37.2446 69.6385 37.5088 69.8419C37.5511 69.871 37.6012 69.8208 37.5669 69.7864Z" fill="#263238"/>
<path d="M44.7179 78.33C44.2154 77.4427 43.5981 76.6255 42.8819 75.8996C42.4724 75.469 42.0392 75.0648 41.635 74.6289C41.6165 74.6104 41.5901 74.6289 41.6059 74.6606C42.0497 75.1626 42.4539 75.6988 42.8502 76.2457C43.2464 76.7925 43.5952 77.2627 43.9386 77.7937C44.282 78.3247 44.5383 78.8214 44.8209 79.3497C45.1267 79.892 45.3552 80.4744 45.4998 81.08C45.4998 81.1065 45.55 81.1012 45.5474 81.08C45.4546 80.1177 45.1727 79.1831 44.7179 78.33Z" fill="#263238"/>
<path d="M44.7548 80.8291C42.8317 85.4733 38.3381 88.5905 38.1083 88.6592C32.2965 90.5084 25.428 90.0857 24.0886 89.5257C21.6383 88.5086 19.4081 87.0266 17.5213 85.1615L17.4949 85.1272C17.4949 85.1272 19.743 84.3743 20.9714 84.62C22.1998 84.8657 23.9592 86.596 26.5639 86.5379C29.1687 86.4798 29.2902 84.8789 29.8819 83.8407C30.1461 83.3546 30.9069 82.4379 32.7033 82.9081C32.7033 82.9081 33.0996 78.5467 33.5539 78.3697C34.1245 78.1504 34.9435 82.5964 35.0571 82.7021C35.1707 82.8078 35.6488 82.1949 36.2881 82.7021C36.9274 83.2093 37.4901 84.9951 39.3367 84.9951C41.5716 84.9951 41.7671 81.9069 43.1117 81.228C43.6243 80.9784 44.1848 80.8423 44.7548 80.8291Z" fill="white"/>
<path d="M39.0588 79.3355C39.8146 79.2594 40.2752 79.9297 40.3689 80.7575C40.4453 81.4289 40.0738 82.1579 39.3482 82.2306C38.6225 82.3034 38.082 81.543 38.0114 80.914C37.9408 80.285 38.2313 79.4137 39.0588 79.3355Z" fill="#263238"/>
<path d="M26.9236 80.1375C25.999 80.0153 25.44 80.6578 25.3298 81.4799C25.3091 81.6628 25.3253 81.8479 25.3774 82.0245C25.4296 82.2011 25.5167 82.3656 25.6336 82.5085C25.7505 82.6515 25.8949 82.77 26.0585 82.8571C26.2221 82.9442 26.4015 82.9982 26.5863 83.016C27.4749 83.1328 28.1299 82.4059 28.2139 81.7807C28.2399 81.5886 28.2269 81.3932 28.1759 81.2062C28.1248 81.0191 28.0367 80.8439 27.9165 80.6909C27.7964 80.538 27.6467 80.4103 27.4763 80.3152C27.3058 80.2202 27.1179 80.1598 26.9236 80.1375Z" fill="#263238"/>
<path d="M32.6084 82.847C32.6427 83.0319 33.8051 83.6685 33.9292 83.6633C34.0534 83.658 35.1708 82.8998 35.192 82.7122C35.2131 82.5247 34.1564 82.5088 33.887 82.5247C33.6175 82.5405 32.5767 82.6621 32.6084 82.847Z" fill="#263238"/>
<path d="M36.1059 84.0041C35.9342 84.2683 35.7599 84.5509 35.5776 84.7966C35.4852 84.9195 35.3798 85.032 35.2632 85.1321C35.2186 85.1698 35.1648 85.1953 35.1074 85.2061C35.0535 85.1976 35.0027 85.1758 34.9594 85.1427C34.8524 85.0513 34.7629 84.9412 34.6953 84.8178C34.6151 84.6861 34.5436 84.5493 34.4813 84.4083C34.3555 84.1203 34.2479 83.8247 34.159 83.5233L33.9978 82.9712L33.8367 83.5233C33.73 83.8919 33.5922 84.2507 33.4246 84.5959C33.3435 84.7651 33.2462 84.9261 33.134 85.0766C33.0398 85.219 32.9056 85.3302 32.7483 85.3963H32.6955H32.64C32.5983 85.3957 32.5567 85.3913 32.5158 85.3831C32.4241 85.3654 32.3352 85.3351 32.2517 85.2933C32.0846 85.2048 31.9292 85.0956 31.7894 84.9683C31.5012 84.7033 31.2409 84.4094 31.0127 84.0913C31.1899 84.4485 31.4147 84.7799 31.6811 85.0766C31.8184 85.2309 31.9767 85.3652 32.1513 85.4756C32.3406 85.607 32.5739 85.6592 32.8011 85.6208C33.018 85.5543 33.2084 85.4212 33.3453 85.2404C33.4775 85.0765 33.5926 84.8995 33.6888 84.7121C33.8764 84.3523 34.0295 83.9755 34.1458 83.5867H33.8235C33.9198 83.9039 34.0408 84.2131 34.1854 84.5113C34.2631 84.6626 34.3514 84.8083 34.4496 84.9472C34.5486 85.0991 34.6781 85.2286 34.83 85.3276C34.9209 85.3842 35.0268 85.4118 35.1338 85.4069C35.2352 85.3866 35.3277 85.3348 35.398 85.2589C35.5183 85.139 35.6215 85.003 35.7044 84.8547C35.8624 84.5832 35.9967 84.2986 36.1059 84.0041Z" fill="#263238"/>
<path d="M42.3879 82.4322C43.3337 82.3371 44.2794 82.271 45.2252 82.2288C46.1709 82.1865 47.1219 82.1548 48.0677 82.168C48.5432 82.168 49.016 82.168 49.4889 82.1812C49.9618 82.1944 50.4373 82.2156 50.9102 82.242C51.8585 82.2816 52.8016 82.3741 53.75 82.456C53.2798 82.3794 52.8122 82.3001 52.3393 82.242C51.8665 82.1839 51.3936 82.131 50.9207 82.094C49.9723 82.0122 49.0213 81.9857 48.0677 81.9752C47.114 81.9646 46.1656 82.0095 45.2172 82.0808C44.7444 82.1178 44.2689 82.1654 43.796 82.2182C43.3231 82.271 42.8529 82.3424 42.3879 82.4322Z" fill="#263238"/>
<path d="M42.7869 82.974C43.2148 82.974 43.6428 82.9925 44.0707 83.011C44.4987 83.0295 44.9267 83.0427 45.352 83.0665C46.2053 83.1087 47.0585 83.1589 47.9092 83.2382C48.3371 83.2673 48.7625 83.3122 49.1878 83.3518L50.4611 83.4971L51.0977 83.5737L51.7318 83.6635C52.1571 83.7137 52.5771 83.7956 53.0024 83.8511C52.1703 83.6503 51.3302 83.476 50.4796 83.3491C49.6289 83.2223 48.7809 83.1246 47.925 83.048C47.0691 82.9714 46.2158 82.9318 45.3573 82.9185C44.4987 82.9053 43.6428 82.9133 42.7869 82.974Z" fill="#263238"/>
<path d="M42.5571 83.5181C42.9111 83.5683 43.2651 83.6185 43.6138 83.6766C43.9625 83.7347 44.3165 83.7849 44.6705 83.8456C45.3732 83.9698 46.0759 84.0887 46.7839 84.226C47.4919 84.3634 48.1814 84.5034 48.8788 84.654C49.5762 84.8046 50.2683 84.9631 50.9684 85.1163C50.6267 85.0018 50.2859 84.8935 49.946 84.7914C49.6026 84.6963 49.2592 84.5985 48.9105 84.5114C48.221 84.3264 47.5209 84.1785 46.8209 84.0385C46.1208 83.8985 45.4128 83.7902 44.7075 83.7003C44.0022 83.6105 43.273 83.5392 42.5571 83.5181Z" fill="#263238"/>
<path d="M21.2648 85.5097C20.6783 85.4674 20.0866 85.4595 19.4975 85.4516C18.9084 85.4436 18.3193 85.4516 17.7275 85.4859C16.5493 85.5308 15.3737 85.6286 14.2008 85.7501C13.0279 85.8716 11.8576 86.0565 10.7005 86.2784C10.122 86.3867 9.54608 86.5162 8.97018 86.6483C8.68224 86.7143 8.39957 86.7909 8.11426 86.8675L7.26099 87.0973C8.41542 86.8569 9.56457 86.6086 10.7269 86.4237C11.3081 86.3233 11.8893 86.2361 12.4705 86.1595C13.0517 86.0829 13.6355 86.001 14.2219 85.9429C15.3896 85.7976 16.5625 85.7052 17.7354 85.6285C18.9084 85.5519 20.0866 85.5123 21.2648 85.5097Z" fill="#263238"/>
<path d="M20.8474 86.2339C19.7907 86.2867 18.734 86.4003 17.6773 86.5403C16.6206 86.6803 15.5639 86.8626 14.5284 87.0687C13.4928 87.2747 12.4467 87.5125 11.4217 87.7899C10.3967 88.0672 9.37699 88.3842 8.37842 88.7409C8.89355 88.6088 9.39812 88.445 9.91326 88.3208L10.6846 88.1174L11.456 87.9325C11.9844 87.8057 12.4916 87.6921 13.0067 87.5732C13.5219 87.4544 14.0449 87.3513 14.5653 87.2562C15.6035 87.0423 16.6497 86.86 17.6984 86.6935C18.2268 86.6064 18.7551 86.5271 19.2835 86.4532C19.8118 86.3792 20.3217 86.2999 20.8474 86.2339Z" fill="#263238"/>
<path d="M21.2067 86.8701C20.3296 87.0048 19.4658 87.1977 18.6046 87.3985C17.7434 87.5992 16.8901 87.8581 16.0421 88.1144C15.1941 88.3706 14.3567 88.6638 13.5298 88.9809C13.1124 89.1341 12.7029 89.3005 12.2908 89.4669C11.8787 89.6334 11.4772 89.813 11.073 89.9953C11.9078 89.7047 12.7399 89.3983 13.5774 89.1182C14.4148 88.8382 15.2549 88.5555 16.1002 88.2966C16.9456 88.0378 17.7909 87.7842 18.6415 87.5411C19.0669 87.417 19.4922 87.3034 19.9201 87.1898C20.3481 87.0762 20.7761 86.9758 21.2067 86.8701Z" fill="#263238"/>
</svg>
